# xmcd
#
# Track frame offsets:
#     180
#     10660
#     23309
#     37239
#     48588
#     73860
#     94503
#     114682
#     127518
#     146122
#     166280
#
# Disc length: 2396
#
# Revision: 7
# Processed by: cddbd v1.5.2PL0 Copyright (c) Steve Scherf et al.
# Submitted via: fre:ac v1.0.17
#
DISCID=8a095a0b
DTITLE=Orlando Pops Orchestra / The Genius of Andrew Lloyd Webber
DYEAR=1996
DGENRE=Musical
TTITLE0=Phantom Overture (from Phantom of the Opera)
TTITLE1=Take That Look Off Your Face (from Song and Dance)
TTITLE2=Another Suitcase in Another Hall (from Evita)
TTITLE3=Rainbow High (from Evita)
TTITLE4=Buenos Aires (from Evita)
TTITLE5=Heaven in our Minds (from Jesus Christ Superstar)
TTITLE6=Everything's Alright (from Jesus Christ Superstar)
TTITLE7=John 19 41 (from Jesus Christ Superstar)
TTITLE8=Aspects of Aspects (from Aspects of Love)
TTITLE9=Too Much in Love to Care (from Sunset Boulevard)
TTITLE10=Pharoah's Story (from Joseph and the Amazing Technicolor Dreamcoat)
EXTD= YEAR: 2001
EXTT0=
EXTT1=
EXTT2=
EXTT3=
EXTT4=
EXTT5=
EXTT6=
EXTT7=
EXTT8=
EXTT9=
EXTT10=
PLAYORDER=
.
